<?xml version='1.0' encoding='UTF-8'?>
<svg width="74.4mm" height="74.4mm" version="1.1" viewBox="0 0 74.4 74.4" xmlns="http://www.w3.org/2000/svg"><path d="M 64.8 52.8 L 64.8 55.2 L 67.2 55.2 L 67.2 52.8 z M 45.6 43.2 L 45.6 45.6 L 48.0 45.6 L 48.0 43.2 z M 48 2.4 L 48 4.8 L 50.4 4.8 L 50.4 2.4 z M 21.6 24 L 21.6 26.4 L 24.0 26.4 L 24.0 24 z M 48 24 L 48 26.4 L 50.4 26.4 L 50.4 24 z M 2.4 14.4 L 2.4 16.8 L 4.8 16.8 L 4.8 14.4 z M 2.4 36 L 2.4 38.4 L 4.8 38.4 L 4.8 36 z M 28.8 36 L 28.8 38.4 L 31.2 38.4 L 31.2 36 z M 2.4 57.6 L 2.4 60.0 L 4.8 60.0 L 4.8 57.6 z M 26.4 67.2 L 26.4 69.6 L 28.8 69.6 L 28.8 67.2 z M 62.4 62.4 L 62.4 64.8 L 64.8 64.8 L 64.8 62.4 z M 12 7.2 L 12 9.6 L 14.4 9.6 L 14.4 7.2 z M 9.6 16.8 L 9.6 19.2 L 12.0 19.2 L 12.0 16.8 z M 9.6 38.4 L 9.6 40.8 L 12.0 40.8 L 12.0 38.4 z M 36 38.4 L 36 40.8 L 38.4 40.8 L 38.4 38.4 z M 55.2 69.6 L 55.2 72.0 L 57.6 72.0 L 57.6 69.6 z M 9.6 60 L 9.6 62.4 L 12.0 62.4 L 12.0 60 z M 38.4 19.2 L 38.4 21.6 L 40.8 21.6 L 40.8 19.2 z M 45.6 9.6 L 45.6 12.0 L 48.0 12.0 L 48.0 9.6 z M 38.4 40.8 L 38.4 43.2 L 40.8 43.2 L 40.8 40.8 z M 64.8 40.8 L 64.8 43.2 L 67.2 43.2 L 67.2 40.8 z M 19.2 31.2 L 19.2 33.6 L 21.6 33.6 L 21.6 31.2 z M 45.6 31.2 L 45.6 33.6 L 48.0 33.6 L 48.0 31.2 z M 45.6 52.8 L 45.6 55.2 L 48.0 55.2 L 48.0 52.8 z M 21.6 12 L 21.6 14.4 L 24.0 14.4 L 24.0 12 z M 48 12 L 48 14.4 L 50.4 14.4 L 50.4 12 z M 2.4 2.4 L 2.4 4.8 L 4.8 4.8 L 4.8 2.4 z M 26.4 55.2 L 26.4 57.6 L 28.8 57.6 L 28.8 55.2 z M 62.4 50.4 L 62.4 52.8 L 64.8 52.8 L 64.8 50.4 z M 55.2 14.4 L 55.2 16.8 L 57.6 16.8 L 57.6 14.4 z M 36 4.8 L 36 7.2 L 38.4 7.2 L 38.4 4.8 z M 55.2 36 L 55.2 38.4 L 57.6 38.4 L 57.6 36 z M 9.6 26.4 L 9.6 28.8 L 12.0 28.8 L 12.0 26.4 z M 36 26.4 L 36 28.8 L 38.4 28.8 L 38.4 26.4 z M 9.6 48 L 9.6 50.4 L 12.0 50.4 L 12.0 48 z M 9.6 69.6 L 9.6 72.0 L 12.0 72.0 L 12.0 69.6 z M 36 69.6 L 36 72.0 L 38.4 72.0 L 38.4 69.6 z M 64.8 7.2 L 64.8 9.6 L 67.2 9.6 L 67.2 7.2 z M 38.4 28.8 L 38.4 31.2 L 40.8 31.2 L 40.8 28.8 z M 64.8 50.4 L 64.8 52.8 L 67.2 52.8 L 67.2 50.4 z M 19.2 40.8 L 19.2 43.2 L 21.6 43.2 L 21.6 40.8 z M 52.8 67.2 L 52.8 69.6 L 55.2 69.6 L 55.2 67.2 z M 62.4 16.8 L 62.4 19.2 L 64.8 19.2 L 64.8 16.8 z M 26.4 43.2 L 26.4 45.6 L 28.8 45.6 L 28.8 43.2 z M 7.2 55.2 L 7.2 57.6 L 9.6 57.6 L 9.6 55.2 z M 55.2 2.4 L 55.2 4.8 L 57.6 4.8 L 57.6 2.4 z M 55.2 24 L 55.2 26.4 L 57.6 26.4 L 57.6 24 z M 9.6 36 L 9.6 38.4 L 12.0 38.4 L 12.0 36 z M 36 57.6 L 36 60.0 L 38.4 60.0 L 38.4 57.6 z M 64.8 16.8 L 64.8 19.2 L 67.2 19.2 L 67.2 16.8 z M 69.6 62.4 L 69.6 64.8 L 72.0 64.8 L 72.0 62.4 z M 45.6 7.2 L 45.6 9.6 L 48.0 9.6 L 48.0 7.2 z M 19.2 28.8 L 19.2 31.2 L 21.6 31.2 L 21.6 28.8 z M 45.6 28.8 L 45.6 31.2 L 48.0 31.2 L 48.0 28.8 z M 52.8 33.6 L 52.8 36.0 L 55.2 36.0 L 55.2 33.6 z M 16.8 60 L 16.8 62.4 L 19.2 62.4 L 19.2 60 z M 26.4 9.6 L 26.4 12.0 L 28.8 12.0 L 28.8 9.6 z M 7.2 21.6 L 7.2 24.0 L 9.6 24.0 L 9.6 21.6 z M 62.4 26.4 L 62.4 28.8 L 64.8 28.8 L 64.8 26.4 z M 26.4 52.8 L 26.4 55.2 L 28.8 55.2 L 28.8 52.8 z M 7.2 64.8 L 7.2 67.2 L 9.6 67.2 L 9.6 64.8 z M 55.2 12 L 55.2 14.4 L 57.6 14.4 L 57.6 12 z M 9.6 2.4 L 9.6 4.8 L 12.0 4.8 L 12.0 2.4 z M 55.2 33.6 L 55.2 36.0 L 57.6 36.0 L 57.6 33.6 z M 9.6 24 L 9.6 26.4 L 12.0 26.4 L 12.0 24 z M 36 24 L 36 26.4 L 38.4 26.4 L 38.4 24 z M 36 45.6 L 36 48.0 L 38.4 48.0 L 38.4 45.6 z M 43.2 50.4 L 43.2 52.8 L 45.6 52.8 L 45.6 50.4 z M 69.6 50.4 L 69.6 52.8 L 72.0 52.8 L 72.0 50.4 z M 24 62.4 L 24 64.8 L 26.4 64.8 L 26.4 62.4 z M 16.8 26.4 L 16.8 28.8 L 19.2 28.8 L 19.2 26.4 z M 16.8 69.6 L 16.8 72.0 L 19.2 72.0 L 19.2 69.6 z M 52.8 64.8 L 52.8 67.2 L 55.2 67.2 L 55.2 64.8 z M 26.4 19.2 L 26.4 21.6 L 28.8 21.6 L 28.8 19.2 z M 7.2 9.6 L 7.2 12.0 L 9.6 12.0 L 9.6 9.6 z M 55.2 21.6 L 55.2 24.0 L 57.6 24.0 L 57.6 21.6 z M 60 67.2 L 60 69.6 L 62.4 69.6 L 62.4 67.2 z M 9.6 12 L 9.6 14.4 L 12.0 14.4 L 12.0 12 z M 69.6 16.8 L 69.6 19.2 L 72.0 19.2 L 72.0 16.8 z M 69.6 38.4 L 69.6 40.8 L 72.0 40.8 L 72.0 38.4 z M 14.4 55.2 L 14.4 57.6 L 16.8 57.6 L 16.8 55.2 z M 43.2 60 L 43.2 62.4 L 45.6 62.4 L 45.6 60 z M 24 50.4 L 24 52.8 L 26.4 52.8 L 26.4 50.4 z M 16.8 14.4 L 16.8 16.8 L 19.2 16.8 L 19.2 14.4 z M 16.8 36 L 16.8 38.4 L 19.2 38.4 L 19.2 36 z M 52.8 31.2 L 52.8 33.6 L 55.2 33.6 L 55.2 31.2 z M 16.8 57.6 L 16.8 60.0 L 19.2 60.0 L 19.2 57.6 z M 26.4 7.2 L 26.4 9.6 L 28.8 9.6 L 28.8 7.2 z M 62.4 2.4 L 62.4 4.8 L 64.8 4.8 L 64.8 2.4 z M 26.4 28.8 L 26.4 31.2 L 28.8 31.2 L 28.8 28.8 z M 7.2 40.8 L 7.2 43.2 L 9.6 43.2 L 9.6 40.8 z M 60 33.6 L 60 36.0 L 62.4 36.0 L 62.4 33.6 z M 60 55.2 L 60 57.6 L 62.4 57.6 L 62.4 55.2 z M 43.2 4.8 L 43.2 7.2 L 45.6 7.2 L 45.6 4.8 z M 69.6 4.8 L 69.6 7.2 L 72.0 7.2 L 72.0 4.8 z M 14.4 21.6 L 14.4 24.0 L 16.8 24.0 L 16.8 21.6 z M 43.2 26.4 L 43.2 28.8 L 45.6 28.8 L 45.6 26.4 z M 14.4 43.2 L 14.4 45.6 L 16.8 45.6 L 16.8 43.2 z M 24 38.4 L 24 40.8 L 26.4 40.8 L 26.4 38.4 z M 43.2 69.6 L 43.2 72.0 L 45.6 72.0 L 45.6 69.6 z M 16.8 2.4 L 16.8 4.8 L 19.2 4.8 L 19.2 2.4 z M 16.8 45.6 L 16.8 48.0 L 19.2 48.0 L 19.2 45.6 z M 52.8 40.8 L 52.8 43.2 L 55.2 43.2 L 55.2 40.8 z M 50.4 50.4 L 50.4 52.8 L 52.8 52.8 L 52.8 50.4 z M 26.4 16.8 L 26.4 19.2 L 28.8 19.2 L 28.8 16.8 z M 7.2 7.2 L 7.2 9.6 L 9.6 9.6 L 9.6 7.2 z M 60 21.6 L 60 24.0 L 62.4 24.0 L 62.4 21.6 z M 4.8 38.4 L 4.8 40.8 L 7.2 40.8 L 7.2 38.4 z M 33.6 43.2 L 33.6 45.6 L 36.0 45.6 L 36.0 43.2 z M 60 43.2 L 60 45.6 L 62.4 45.6 L 62.4 43.2 z M 33.6 64.8 L 33.6 67.2 L 36.0 67.2 L 36.0 64.8 z M 60 64.8 L 60 67.2 L 62.4 67.2 L 62.4 64.8 z M 40.8 55.2 L 40.8 57.6 L 43.2 57.6 L 43.2 55.2 z M 69.6 14.4 L 69.6 16.8 L 72.0 16.8 L 72.0 14.4 z M 14.4 31.2 L 14.4 33.6 L 16.8 33.6 L 16.8 31.2 z M 24 26.4 L 24 28.8 L 26.4 28.8 L 26.4 26.4 z M 24 69.6 L 24 72.0 L 26.4 72.0 L 26.4 69.6 z M 16.8 12 L 16.8 14.4 L 19.2 14.4 L 19.2 12 z M 50.4 38.4 L 50.4 40.8 L 52.8 40.8 L 52.8 38.4 z M 50.4 60 L 50.4 62.4 L 52.8 62.4 L 52.8 60 z M 31.2 50.4 L 31.2 52.8 L 33.6 52.8 L 33.6 50.4 z M 57.6 50.4 L 57.6 52.8 L 60.0 52.8 L 60.0 50.4 z M 12 62.4 L 12 64.8 L 14.4 64.8 L 14.4 62.4 z M 60 9.6 L 60 12.0 L 62.4 12.0 L 62.4 9.6 z M 4.8 26.4 L 4.8 28.8 L 7.2 28.8 L 7.2 26.4 z M 40.8 21.6 L 40.8 24.0 L 43.2 24.0 L 43.2 21.6 z M 60 52.8 L 60 55.2 L 62.4 55.2 L 62.4 52.8 z M 4.8 69.6 L 4.8 72.0 L 7.2 72.0 L 7.2 69.6 z M 69.6 2.4 L 69.6 4.8 L 72.0 4.8 L 72.0 2.4 z M 69.6 24 L 69.6 26.4 L 72.0 26.4 L 72.0 24 z M 24 14.4 L 24 16.8 L 26.4 16.8 L 26.4 14.4 z M 67.2 55.2 L 67.2 57.6 L 69.6 57.6 L 69.6 55.2 z M 50.4 4.8 L 50.4 7.2 L 52.8 7.2 L 52.8 4.8 z M 31.2 16.8 L 31.2 19.2 L 33.6 19.2 L 33.6 16.8 z M 57.6 16.8 L 57.6 19.2 L 60.0 19.2 L 60.0 16.8 z M 31.2 38.4 L 31.2 40.8 L 33.6 40.8 L 33.6 38.4 z M 57.6 38.4 L 57.6 40.8 L 60.0 40.8 L 60.0 38.4 z M 31.2 60 L 31.2 62.4 L 33.6 62.4 L 33.6 60 z M 57.6 60 L 57.6 62.4 L 60.0 62.4 L 60.0 60 z M 40.8 9.6 L 40.8 12.0 L 43.2 12.0 L 43.2 9.6 z M 4.8 36 L 4.8 38.4 L 7.2 38.4 L 7.2 36 z M 40.8 31.2 L 40.8 33.6 L 43.2 33.6 L 43.2 31.2 z M 40.8 52.8 L 40.8 55.2 L 43.2 55.2 L 43.2 52.8 z M 43.2 12 L 43.2 14.4 L 45.6 14.4 L 45.6 12 z M 69.6 12 L 69.6 14.4 L 72.0 14.4 L 72.0 12 z M 67.2 43.2 L 67.2 45.6 L 69.6 45.6 L 69.6 43.2 z M 21.6 33.6 L 21.6 36.0 L 24.0 36.0 L 24.0 33.6 z M 48 33.6 L 48 36.0 L 50.4 36.0 L 50.4 33.6 z M 67.2 64.8 L 67.2 67.2 L 69.6 67.2 L 69.6 64.8 z M 48 55.2 L 48 57.6 L 50.4 57.6 L 50.4 55.2 z M 2.4 45.6 L 2.4 48.0 L 4.8 48.0 L 4.8 45.6 z M 28.8 45.6 L 28.8 48.0 L 31.2 48.0 L 31.2 45.6 z M 2.4 67.2 L 2.4 69.6 L 4.8 69.6 L 4.8 67.2 z M 28.8 67.2 L 28.8 69.6 L 31.2 69.6 L 31.2 67.2 z M 50.4 14.4 L 50.4 16.8 L 52.8 16.8 L 52.8 14.4 z M 50.4 36 L 50.4 38.4 L 52.8 38.4 L 52.8 36 z M 31.2 26.4 L 31.2 28.8 L 33.6 28.8 L 33.6 26.4 z M 50.4 57.6 L 50.4 60.0 L 52.8 60.0 L 52.8 57.6 z M 12 16.8 L 12 19.2 L 14.4 19.2 L 14.4 16.8 z M 57.6 48 L 57.6 50.4 L 60.0 50.4 L 60.0 48 z M 12 38.4 L 12 40.8 L 14.4 40.8 L 14.4 38.4 z M 31.2 69.6 L 31.2 72.0 L 33.6 72.0 L 33.6 69.6 z M 57.6 69.6 L 57.6 72.0 L 60.0 72.0 L 60.0 69.6 z M 12 60 L 12 62.4 L 14.4 62.4 L 14.4 60 z M 4.8 2.4 L 4.8 4.8 L 7.2 4.8 L 7.2 2.4 z M 33.6 7.2 L 33.6 9.6 L 36.0 9.6 L 36.0 7.2 z M 60 7.2 L 60 9.6 L 62.4 9.6 L 62.4 7.2 z M 33.6 28.8 L 33.6 31.2 L 36.0 31.2 L 36.0 28.8 z M 60 28.8 L 60 31.2 L 62.4 31.2 L 62.4 28.8 z M 40.8 40.8 L 40.8 43.2 L 43.2 43.2 L 43.2 40.8 z M 38.4 50.4 L 38.4 52.8 L 40.8 52.8 L 40.8 50.4 z M 14.4 16.8 L 14.4 19.2 L 16.8 19.2 L 16.8 16.8 z M 67.2 31.2 L 67.2 33.6 L 69.6 33.6 L 69.6 31.2 z M 2.4 12 L 2.4 14.4 L 4.8 14.4 L 4.8 12 z M 48 43.2 L 48 45.6 L 50.4 45.6 L 50.4 43.2 z M 2.4 33.6 L 2.4 36.0 L 4.8 36.0 L 4.8 33.6 z M 21.6 64.8 L 21.6 67.2 L 24.0 67.2 L 24.0 64.8 z M 2.4 55.2 L 2.4 57.6 L 4.8 57.6 L 4.8 55.2 z M 28.8 55.2 L 28.8 57.6 L 31.2 57.6 L 31.2 55.2 z M 50.4 2.4 L 50.4 4.8 L 52.8 4.8 L 52.8 2.4 z M 50.4 24 L 50.4 26.4 L 52.8 26.4 L 52.8 24 z M 31.2 14.4 L 31.2 16.8 L 33.6 16.8 L 33.6 14.4 z M 50.4 45.6 L 50.4 48.0 L 52.8 48.0 L 52.8 45.6 z M 57.6 36 L 57.6 38.4 L 60.0 38.4 L 60.0 36 z M 31.2 57.6 L 31.2 60.0 L 33.6 60.0 L 33.6 57.6 z M 12 48 L 12 50.4 L 14.4 50.4 L 14.4 48 z M 12 69.6 L 12 72.0 L 14.4 72.0 L 14.4 69.6 z M 60 16.8 L 60 19.2 L 62.4 19.2 L 62.4 16.8 z M 4.8 33.6 L 4.8 36.0 L 7.2 36.0 L 7.2 33.6 z M 38.4 60 L 38.4 62.4 L 40.8 62.4 L 40.8 60 z M 64.8 60 L 64.8 62.4 L 67.2 62.4 L 67.2 60 z M 19.2 50.4 L 19.2 52.8 L 21.6 52.8 L 21.6 50.4 z M 21.6 9.6 L 21.6 12.0 L 24.0 12.0 L 24.0 9.6 z M 67.2 62.4 L 67.2 64.8 L 69.6 64.8 L 69.6 62.4 z M 2.4 21.6 L 2.4 24.0 L 4.8 24.0 L 4.8 21.6 z M 21.6 52.8 L 21.6 55.2 L 24.0 55.2 L 24.0 52.8 z M 48 52.8 L 48 55.2 L 50.4 55.2 L 50.4 52.8 z M 2.4 43.2 L 2.4 45.6 L 4.8 45.6 L 4.8 43.2 z M 2.4 64.8 L 2.4 67.2 L 4.8 67.2 L 4.8 64.8 z M 28.8 64.8 L 28.8 67.2 L 31.2 67.2 L 31.2 64.8 z M 31.2 2.4 L 31.2 4.8 L 33.6 4.8 L 33.6 2.4 z M 57.6 2.4 L 57.6 4.8 L 60.0 4.8 L 60.0 2.4 z M 50.4 33.6 L 50.4 36.0 L 52.8 36.0 L 52.8 33.6 z M 57.6 24 L 57.6 26.4 L 60.0 26.4 L 60.0 24 z M 57.6 45.6 L 57.6 48.0 L 60.0 48.0 L 60.0 45.6 z M 55.2 55.2 L 55.2 57.6 L 57.6 57.6 L 57.6 55.2 z M 38.4 4.8 L 38.4 7.2 L 40.8 7.2 L 40.8 4.8 z M 38.4 26.4 L 38.4 28.8 L 40.8 28.8 L 40.8 26.4 z M 45.6 16.8 L 45.6 19.2 L 48.0 19.2 L 48.0 16.8 z M 38.4 69.6 L 38.4 72.0 L 40.8 72.0 L 40.8 69.6 z M 64.8 69.6 L 64.8 72.0 L 67.2 72.0 L 67.2 69.6 z M 45.6 60 L 45.6 62.4 L 48.0 62.4 L 48.0 60 z M 67.2 28.8 L 67.2 31.2 L 69.6 31.2 L 69.6 28.8 z M 21.6 19.2 L 21.6 21.6 L 24.0 21.6 L 24.0 19.2 z M 48 19.2 L 48 21.6 L 50.4 21.6 L 50.4 19.2 z M 67.2 50.4 L 67.2 52.8 L 69.6 52.8 L 69.6 50.4 z M 2.4 9.6 L 2.4 12.0 L 4.8 12.0 L 4.8 9.6 z M 48 40.8 L 48 43.2 L 50.4 43.2 L 50.4 40.8 z M 62.4 57.6 L 62.4 60.0 L 64.8 60.0 L 64.8 57.6 z M 12 2.4 L 12 4.8 L 14.4 4.8 L 14.4 2.4 z M 55.2 43.2 L 55.2 45.6 L 57.6 45.6 L 57.6 43.2 z M 9.6 33.6 L 9.6 36.0 L 12.0 36.0 L 12.0 33.6 z M 55.2 64.8 L 55.2 67.2 L 57.6 67.2 L 57.6 64.8 z M 9.6 55.2 L 9.6 57.6 L 12.0 57.6 L 12.0 55.2 z M 38.4 14.4 L 38.4 16.8 L 40.8 16.8 L 40.8 14.4 z M 38.4 36 L 38.4 38.4 L 40.8 38.4 L 40.8 36 z M 64.8 36 L 64.8 38.4 L 67.2 38.4 L 67.2 36 z M 19.2 26.4 L 19.2 28.8 L 21.6 28.8 L 21.6 26.4 z M 38.4 57.6 L 38.4 60.0 L 40.8 60.0 L 40.8 57.6 z M 19.2 48 L 19.2 50.4 L 21.6 50.4 L 21.6 48 z M 45.6 48 L 45.6 50.4 L 48.0 50.4 L 48.0 48 z M 45.6 69.6 L 45.6 72.0 L 48.0 72.0 L 48.0 69.6 z M 67.2 16.8 L 67.2 19.2 L 69.6 19.2 L 69.6 16.8 z M 21.6 7.2 L 21.6 9.6 L 24.0 9.6 L 24.0 7.2 z M 48 7.2 L 48 9.6 L 50.4 9.6 L 50.4 7.2 z M 48 28.8 L 48 31.2 L 50.4 31.2 L 50.4 28.8 z M 2.4 40.8 L 2.4 43.2 L 4.8 43.2 L 4.8 40.8 z M 28.8 40.8 L 28.8 43.2 L 31.2 43.2 L 31.2 40.8 z M 62.4 45.6 L 62.4 48.0 L 64.8 48.0 L 64.8 45.6 z M 7.2 62.4 L 7.2 64.8 L 9.6 64.8 L 9.6 62.4 z M 55.2 9.6 L 55.2 12.0 L 57.6 12.0 L 57.6 9.6 z M 9.6 21.6 L 9.6 24.0 L 12.0 24.0 L 12.0 21.6 z M 36 43.2 L 36 45.6 L 38.4 45.6 L 38.4 43.2 z M 9.6 64.8 L 9.6 67.2 L 12.0 67.2 L 12.0 64.8 z M 38.4 2.4 L 38.4 4.8 L 40.8 4.8 L 40.8 2.4 z M 64.8 2.4 L 64.8 4.8 L 67.2 4.8 L 67.2 2.4 z M 38.4 45.6 L 38.4 48.0 L 40.8 48.0 L 40.8 45.6 z M 45.6 36 L 45.6 38.4 L 48.0 38.4 L 48.0 36 z M 45.6 57.6 L 45.6 60.0 L 48.0 60.0 L 48.0 57.6 z M 16.8 67.2 L 16.8 69.6 L 19.2 69.6 L 19.2 67.2 z M 2.4 7.2 L 2.4 9.6 L 4.8 9.6 L 4.8 7.2 z M 62.4 12 L 62.4 14.4 L 64.8 14.4 L 64.8 12 z M 26.4 38.4 L 26.4 40.8 L 28.8 40.8 L 28.8 38.4 z M 62.4 33.6 L 62.4 36.0 L 64.8 36.0 L 64.8 33.6 z M 26.4 60 L 26.4 62.4 L 28.8 62.4 L 28.8 60 z M 7.2 50.4 L 7.2 52.8 L 9.6 52.8 L 9.6 50.4 z M 9.6 9.6 L 9.6 12.0 L 12.0 12.0 L 12.0 9.6 z M 36 9.6 L 36 12.0 L 38.4 12.0 L 38.4 9.6 z M 36 31.2 L 36 33.6 L 38.4 33.6 L 38.4 31.2 z M 64.8 12 L 64.8 14.4 L 67.2 14.4 L 67.2 12 z M 45.6 2.4 L 45.6 4.8 L 48.0 4.8 L 48.0 2.4 z M 19.2 24 L 19.2 26.4 L 21.6 26.4 L 21.6 24 z M 45.6 45.6 L 45.6 48.0 L 48.0 48.0 L 48.0 45.6 z M 16.8 55.2 L 16.8 57.6 L 19.2 57.6 L 19.2 55.2 z M 52.8 50.4 L 52.8 52.8 L 55.2 52.8 L 55.2 50.4 z M 26.4 4.8 L 26.4 7.2 L 28.8 7.2 L 28.8 4.8 z M 26.4 26.4 L 26.4 28.8 L 28.8 28.8 L 28.8 26.4 z M 7.2 16.8 L 7.2 19.2 L 9.6 19.2 L 9.6 16.8 z M 62.4 21.6 L 62.4 24.0 L 64.8 24.0 L 64.8 21.6 z M 7.2 38.4 L 7.2 40.8 L 9.6 40.8 L 9.6 38.4 z M 62.4 43.2 L 62.4 45.6 L 64.8 45.6 L 64.8 43.2 z M 26.4 69.6 L 26.4 72.0 L 28.8 72.0 L 28.8 69.6 z M 7.2 60 L 7.2 62.4 L 9.6 62.4 L 9.6 60 z M 55.2 7.2 L 55.2 9.6 L 57.6 9.6 L 57.6 7.2 z M 55.2 28.8 L 55.2 31.2 L 57.6 31.2 L 57.6 28.8 z M 36 19.2 L 36 21.6 L 38.4 21.6 L 38.4 19.2 z M 55.2 50.4 L 55.2 52.8 L 57.6 52.8 L 57.6 50.4 z M 9.6 62.4 L 9.6 64.8 L 12.0 64.8 L 12.0 62.4 z M 36 62.4 L 36 64.8 L 38.4 64.8 L 38.4 62.4 z M 43.2 45.6 L 43.2 48.0 L 45.6 48.0 L 45.6 45.6 z M 45.6 12 L 45.6 14.4 L 48.0 14.4 L 48.0 12 z M 24 57.6 L 24 60.0 L 26.4 60.0 L 26.4 57.6 z M 16.8 21.6 L 16.8 24.0 L 19.2 24.0 L 19.2 21.6 z M 16.8 64.8 L 16.8 67.2 L 19.2 67.2 L 19.2 64.8 z M 52.8 60 L 52.8 62.4 L 55.2 62.4 L 55.2 60 z M 26.4 14.4 L 26.4 16.8 L 28.8 16.8 L 28.8 14.4 z M 62.4 9.6 L 62.4 12.0 L 64.8 12.0 L 64.8 9.6 z M 62.4 31.2 L 62.4 33.6 L 64.8 33.6 L 64.8 31.2 z M 26.4 57.6 L 26.4 60.0 L 28.8 60.0 L 28.8 57.6 z M 7.2 48 L 7.2 50.4 L 9.6 50.4 L 9.6 48 z M 7.2 69.6 L 7.2 72.0 L 9.6 72.0 L 9.6 69.6 z M 55.2 16.8 L 55.2 19.2 L 57.6 19.2 L 57.6 16.8 z M 9.6 7.2 L 9.6 9.6 L 12.0 9.6 L 12.0 7.2 z M 9.6 28.8 L 9.6 31.2 L 12.0 31.2 L 12.0 28.8 z M 69.6 33.6 L 69.6 36.0 L 72.0 36.0 L 72.0 33.6 z M 24 45.6 L 24 48.0 L 26.4 48.0 L 26.4 45.6 z M 16.8 9.6 L 16.8 12.0 L 19.2 12.0 L 19.2 9.6 z M 16.8 31.2 L 16.8 33.6 L 19.2 33.6 L 19.2 31.2 z M 52.8 26.4 L 52.8 28.8 L 55.2 28.8 L 55.2 26.4 z M 52.8 48 L 52.8 50.4 L 55.2 50.4 L 55.2 48 z M 52.8 69.6 L 52.8 72.0 L 55.2 72.0 L 55.2 69.6 z M 26.4 2.4 L 26.4 4.8 L 28.8 4.8 L 28.8 2.4 z M 7.2 36 L 7.2 38.4 L 9.6 38.4 L 9.6 36 z M 62.4 40.8 L 62.4 43.2 L 64.8 43.2 L 64.8 40.8 z M 55.2 4.8 L 55.2 7.2 L 57.6 7.2 L 57.6 4.8 z M 60 50.4 L 60 52.8 L 62.4 52.8 L 62.4 50.4 z M 36 16.8 L 36 19.2 L 38.4 19.2 L 38.4 16.8 z M 43.2 21.6 L 43.2 24.0 L 45.6 24.0 L 45.6 21.6 z M 24 12 L 24 14.4 L 26.4 14.4 L 26.4 12 z M 14.4 38.4 L 14.4 40.8 L 16.8 40.8 L 16.8 38.4 z M 69.6 43.2 L 69.6 45.6 L 72.0 45.6 L 72.0 43.2 z M 24 33.6 L 24 36.0 L 26.4 36.0 L 26.4 33.6 z M 43.2 64.8 L 43.2 67.2 L 45.6 67.2 L 45.6 64.8 z M 16.8 40.8 L 16.8 43.2 L 19.2 43.2 L 19.2 40.8 z M 16.8 62.4 L 16.8 64.8 L 19.2 64.8 L 19.2 62.4 z M 50.4 67.2 L 50.4 69.6 L 52.8 69.6 L 52.8 67.2 z M 26.4 12 L 26.4 14.4 L 28.8 14.4 L 28.8 12 z M 7.2 2.4 L 7.2 4.8 L 9.6 4.8 L 9.6 2.4 z M 62.4 7.2 L 62.4 9.6 L 64.8 9.6 L 64.8 7.2 z M 7.2 24 L 7.2 26.4 L 9.6 26.4 L 9.6 24 z M 60 38.4 L 60 40.8 L 62.4 40.8 L 62.4 38.4 z M 4.8 55.2 L 4.8 57.6 L 7.2 57.6 L 7.2 55.2 z M 60 60 L 60 62.4 L 62.4 62.4 L 62.4 60 z M 43.2 9.6 L 43.2 12.0 L 45.6 12.0 L 45.6 9.6 z M 69.6 9.6 L 69.6 12.0 L 72.0 12.0 L 72.0 9.6 z M 14.4 26.4 L 14.4 28.8 L 16.8 28.8 L 16.8 26.4 z M 43.2 31.2 L 43.2 33.6 L 45.6 33.6 L 45.6 31.2 z M 24 21.6 L 24 24.0 L 26.4 24.0 L 26.4 21.6 z M 14.4 48 L 14.4 50.4 L 16.8 50.4 L 16.8 48 z M 69.6 52.8 L 69.6 55.2 L 72.0 55.2 L 72.0 52.8 z M 24 43.2 L 24 45.6 L 26.4 45.6 L 26.4 43.2 z M 14.4 69.6 L 14.4 72.0 L 16.8 72.0 L 16.8 69.6 z M 16.8 7.2 L 16.8 9.6 L 19.2 9.6 L 19.2 7.2 z M 52.8 24 L 52.8 26.4 L 55.2 26.4 L 55.2 24 z M 16.8 50.4 L 16.8 52.8 L 19.2 52.8 L 19.2 50.4 z M 50.4 55.2 L 50.4 57.6 L 52.8 57.6 L 52.8 55.2 z M 31.2 67.2 L 31.2 69.6 L 33.6 69.6 L 33.6 67.2 z M 57.6 67.2 L 57.6 69.6 L 60.0 69.6 L 60.0 67.2 z M 7.2 12 L 7.2 14.4 L 9.6 14.4 L 9.6 12 z M 33.6 4.8 L 33.6 7.2 L 36.0 7.2 L 36.0 4.8 z M 33.6 26.4 L 33.6 28.8 L 36.0 28.8 L 36.0 26.4 z M 40.8 16.8 L 40.8 19.2 L 43.2 19.2 L 43.2 16.8 z M 4.8 43.2 L 4.8 45.6 L 7.2 45.6 L 7.2 43.2 z M 33.6 48 L 33.6 50.4 L 36.0 50.4 L 36.0 48 z M 60 48 L 60 50.4 L 62.4 50.4 L 62.4 48 z M 40.8 38.4 L 40.8 40.8 L 43.2 40.8 L 43.2 38.4 z M 33.6 69.6 L 33.6 72.0 L 36.0 72.0 L 36.0 69.6 z M 40.8 60 L 40.8 62.4 L 43.2 62.4 L 43.2 60 z M 24 9.6 L 24 12.0 L 26.4 12.0 L 26.4 9.6 z M 43.2 40.8 L 43.2 43.2 L 45.6 43.2 L 45.6 40.8 z M 24 31.2 L 24 33.6 L 26.4 33.6 L 26.4 31.2 z M 24 52.8 L 24 55.2 L 26.4 55.2 L 26.4 52.8 z M 16.8 16.8 L 16.8 19.2 L 19.2 19.2 L 19.2 16.8 z M 21.6 62.4 L 21.6 64.8 L 24.0 64.8 L 24.0 62.4 z M 57.6 33.6 L 57.6 36.0 L 60.0 36.0 L 60.0 33.6 z M 31.2 55.2 L 31.2 57.6 L 33.6 57.6 L 33.6 55.2 z M 12 45.6 L 12 48.0 L 14.4 48.0 L 14.4 45.6 z M 40.8 4.8 L 40.8 7.2 L 43.2 7.2 L 43.2 4.8 z M 4.8 31.2 L 4.8 33.6 L 7.2 33.6 L 7.2 31.2 z M 60 36 L 60 38.4 L 62.4 38.4 L 62.4 36 z M 40.8 26.4 L 40.8 28.8 L 43.2 28.8 L 43.2 26.4 z M 60 57.6 L 60 60.0 L 62.4 60.0 L 62.4 57.6 z M 40.8 69.6 L 40.8 72.0 L 43.2 72.0 L 43.2 69.6 z M 14.4 2.4 L 14.4 4.8 L 16.8 4.8 L 16.8 2.4 z M 69.6 7.2 L 69.6 9.6 L 72.0 9.6 L 72.0 7.2 z M 24 19.2 L 24 21.6 L 26.4 21.6 L 26.4 19.2 z M 14.4 45.6 L 14.4 48.0 L 16.8 48.0 L 16.8 45.6 z M 67.2 38.4 L 67.2 40.8 L 69.6 40.8 L 69.6 38.4 z M 16.8 4.8 L 16.8 7.2 L 19.2 7.2 L 19.2 4.8 z M 2.4 62.4 L 2.4 64.8 L 4.8 64.8 L 4.8 62.4 z M 28.8 62.4 L 28.8 64.8 L 31.2 64.8 L 31.2 62.4 z M 50.4 9.6 L 50.4 12.0 L 52.8 12.0 L 52.8 9.6 z M 31.2 21.6 L 31.2 24.0 L 33.6 24.0 L 33.6 21.6 z M 57.6 21.6 L 57.6 24.0 L 60.0 24.0 L 60.0 21.6 z M 50.4 52.8 L 50.4 55.2 L 52.8 55.2 L 52.8 52.8 z M 12 12 L 12 14.4 L 14.4 14.4 L 14.4 12 z M 31.2 43.2 L 31.2 45.6 L 33.6 45.6 L 33.6 43.2 z M 57.6 43.2 L 57.6 45.6 L 60.0 45.6 L 60.0 43.2 z M 57.6 64.8 L 57.6 67.2 L 60.0 67.2 L 60.0 64.8 z M 12 55.2 L 12 57.6 L 14.4 57.6 L 14.4 55.2 z M 33.6 2.4 L 33.6 4.8 L 36.0 4.8 L 36.0 2.4 z M 60 2.4 L 60 4.8 L 62.4 4.8 L 62.4 2.4 z M 33.6 24 L 33.6 26.4 L 36.0 26.4 L 36.0 24 z M 60 24 L 60 26.4 L 62.4 26.4 L 62.4 24 z M 40.8 14.4 L 40.8 16.8 L 43.2 16.8 L 43.2 14.4 z M 33.6 45.6 L 33.6 48.0 L 36.0 48.0 L 36.0 45.6 z M 60 45.6 L 60 48.0 L 62.4 48.0 L 62.4 45.6 z M 4.8 40.8 L 4.8 43.2 L 7.2 43.2 L 7.2 40.8 z M 40.8 36 L 40.8 38.4 L 43.2 38.4 L 43.2 36 z M 40.8 57.6 L 40.8 60.0 L 43.2 60.0 L 43.2 57.6 z M 24 7.2 L 24 9.6 L 26.4 9.6 L 26.4 7.2 z M 21.6 16.8 L 21.6 19.2 L 24.0 19.2 L 24.0 16.8 z M 21.6 38.4 L 21.6 40.8 L 24.0 40.8 L 24.0 38.4 z M 21.6 60 L 21.6 62.4 L 24.0 62.4 L 24.0 60 z M 2.4 50.4 L 2.4 52.8 L 4.8 52.8 L 4.8 50.4 z M 28.8 50.4 L 28.8 52.8 L 31.2 52.8 L 31.2 50.4 z M 50.4 62.4 L 50.4 64.8 L 52.8 64.8 L 52.8 62.4 z M 12 21.6 L 12 24.0 L 14.4 24.0 L 14.4 21.6 z M 31.2 52.8 L 31.2 55.2 L 33.6 55.2 L 33.6 52.8 z M 12 43.2 L 12 45.6 L 14.4 45.6 L 14.4 43.2 z M 12 64.8 L 12 67.2 L 14.4 67.2 L 14.4 64.8 z M 60 12 L 60 14.4 L 62.4 14.4 L 62.4 12 z M 4.8 28.8 L 4.8 31.2 L 7.2 31.2 L 7.2 28.8 z M 38.4 55.2 L 38.4 57.6 L 40.8 57.6 L 40.8 55.2 z M 19.2 45.6 L 19.2 48.0 L 21.6 48.0 L 21.6 45.6 z M 45.6 67.2 L 45.6 69.6 L 48.0 69.6 L 48.0 67.2 z M 67.2 36 L 67.2 38.4 L 69.6 38.4 L 69.6 36 z M 67.2 57.6 L 67.2 60.0 L 69.6 60.0 L 69.6 57.6 z M 2.4 16.8 L 2.4 19.2 L 4.8 19.2 L 4.8 16.8 z M 21.6 48 L 21.6 50.4 L 24.0 50.4 L 24.0 48 z M 2.4 38.4 L 2.4 40.8 L 4.8 40.8 L 4.8 38.4 z M 21.6 69.6 L 21.6 72.0 L 24.0 72.0 L 24.0 69.6 z M 48 69.6 L 48 72.0 L 50.4 72.0 L 50.4 69.6 z M 2.4 60 L 2.4 62.4 L 4.8 62.4 L 4.8 60 z M 28.8 60 L 28.8 62.4 L 31.2 62.4 L 31.2 60 z M 12 9.6 L 12 12.0 L 14.4 12.0 L 14.4 9.6 z M 12 31.2 L 12 33.6 L 14.4 33.6 L 14.4 31.2 z M 4.8 16.8 L 4.8 19.2 L 7.2 19.2 L 7.2 16.8 z M 38.4 21.6 L 38.4 24.0 L 40.8 24.0 L 40.8 21.6 z M 64.8 21.6 L 64.8 24.0 L 67.2 24.0 L 67.2 21.6 z M 19.2 33.6 L 19.2 36.0 L 21.6 36.0 L 21.6 33.6 z M 38.4 64.8 L 38.4 67.2 L 40.8 67.2 L 40.8 64.8 z M 67.2 2.4 L 67.2 4.8 L 69.6 4.8 L 69.6 2.4 z M 67.2 24 L 67.2 26.4 L 69.6 26.4 L 69.6 24 z M 21.6 14.4 L 21.6 16.8 L 24.0 16.8 L 24.0 14.4 z M 2.4 4.8 L 2.4 7.2 L 4.8 7.2 L 4.8 4.8 z M 21.6 36 L 21.6 38.4 L 24.0 38.4 L 24.0 36 z M 67.2 67.2 L 67.2 69.6 L 69.6 69.6 L 69.6 67.2 z M 21.6 57.6 L 21.6 60.0 L 24.0 60.0 L 24.0 57.6 z M 2.4 48 L 2.4 50.4 L 4.8 50.4 L 4.8 48 z M 2.4 69.6 L 2.4 72.0 L 4.8 72.0 L 4.8 69.6 z M 50.4 16.8 L 50.4 19.2 L 52.8 19.2 L 52.8 16.8 z M 31.2 7.2 L 31.2 9.6 L 33.6 9.6 L 33.6 7.2 z M 57.6 28.8 L 57.6 31.2 L 60.0 31.2 L 60.0 28.8 z M 55.2 60 L 55.2 62.4 L 57.6 62.4 L 57.6 60 z M 9.6 50.4 L 9.6 52.8 L 12.0 52.8 L 12.0 50.4 z M 36 50.4 L 36 52.8 L 38.4 52.8 L 38.4 50.4 z M 38.4 9.6 L 38.4 12.0 L 40.8 12.0 L 40.8 9.6 z M 64.8 9.6 L 64.8 12.0 L 67.2 12.0 L 67.2 9.6 z M 64.8 31.2 L 64.8 33.6 L 67.2 33.6 L 67.2 31.2 z M 45.6 21.6 L 45.6 24.0 L 48.0 24.0 L 48.0 21.6 z" id="qr-path" fill="#000000" fill-opacity="1" fill-rule="nonzero" stroke="none" /></svg>